# xmcd CD database file generated by OrangeCD 6.4
#
# Track frame offsets:
#	150
#	14033
#	31374
#	48413
#	61924
#	78637
#
# Disc length: 1204 seconds
#
# Revision: 0
# Processed by: cddbd v1.5.2PL0 Copyright (c) Steve Scherf et al.
# Submitted via: OrangeCD 6.4
#
DISCID=4a04b206
DTITLE=Matt Dmits - Bury Me With My Guitar
DYEAR=2012
DGENRE=
TTITLE0=Bury Me With My Guitar
TTITLE1=Norma
TTITLE2=St. Christopher
TTITLE3=Got Me in Pieces
TTITLE4=When All Your Friends Are Gone
TTITLE5=Fifteen Bullets
EXTD=
EXTT0=
EXTT1=
EXTT2=
EXTT3=
EXTT4=
EXTT5=
PLAYORDER=
